<svg xmlns="http://www.w3.org/2000/svg" width="14" height="11">
    <path fill="#49525D" fill-rule="evenodd" d="M7.629-.001h-3.22c-1.444 0-2.802 1.158-2.802 2.498 0 1.37.984 2.475 2.452 2.475.103 0 .202-.002.299-.01a1.457 1.457 0 0 0-.163.637c0 .381.193.689.438.941-.185 0-.364.006-.558.006C2.287 6.546.91 7.751.91 9c0 1.231 1.509 2 3.297 2 2.039 0 3.164-1.224 3.164-2.454 0-.987-.275-1.578-1.125-2.214-.291-.218-.848-.748-.848-1.06 0-.365.099-.545.618-.974.533-.441.909-1.06.909-1.78 0-.857-.36-1.692-1.038-1.967h1.021l.721-.552zM6.504 8.334c.026.114.04.231.04.351 0 .994-.606 1.771-2.343 1.771-1.236 0-2.129-.828-2.129-1.822 0-.974 1.107-1.786 2.343-1.772.289.004.557.053.801.137.671.493 1.153.772 1.288 1.335zM4.525 4.625c-.829-.026-1.618-.982-1.761-2.135C2.621 1.338 3.177.455 4.007.482c.829.026 1.618.951 1.761 2.104.143 1.152-.413 2.065-1.243 2.039zm6.384-2.184V-.001h-.769v2.442H7.833v.813h2.307v2.442h.769V3.254h2.307v-.813h-2.307z"/>
</svg>
