<svg xmlns="http://www.w3.org/2000/svg" width="11" height="11">
    <path fill="#49525D" fill-rule="evenodd" d="M9.197 0H1.944C.953 0 .142.822.142 1.826v7.348C.142 10.178.953 11 1.944 11h7.253C10.189 11 11 10.178 11 9.174V1.826C11 .822 10.189 0 9.197 0zM3.618 4.812h3.906c.074.216.115.447.115.688 0 1.155-.928 2.095-2.068 2.095-1.14 0-2.068-.94-2.068-2.095 0-.241.04-.472.115-.688zm6.025.001V8.937a.685.685 0 0 1-.679.688H2.178a.685.685 0 0 1-.679-.688V4.812h1.062c-.05.222-.076.452-.076.688 0 1.723 1.384 3.126 3.086 3.126 1.701 0 3.085-1.403 3.085-3.126 0-.236-.026-.466-.075-.688h1.062v.001zm0-2.407a.343.343 0 0 1-.34.344h-.678a.343.343 0 0 1-.34-.344v-.687c0-.189.153-.344.34-.344h.678c.187 0 .34.155.34.344v.687z"/>
</svg>
