<svg xmlns="http://www.w3.org/2000/svg" width="14" height="11">
    <path fill="#49525D" fill-rule="evenodd" d="M13.537 1.302c-.479.22-.994.37-1.535.437A2.766 2.766 0 0 0 13.177.202a5.196 5.196 0 0 1-1.697.674 2.629 2.629 0 0 0-1.952-.877c-1.476 0-2.673 1.244-2.673 2.778 0 .217.024.429.069.632-2.221-.116-4.191-1.221-5.51-2.902-.23.411-.361.888-.361 1.397a2.81 2.81 0 0 0 1.189 2.312 2.595 2.595 0 0 1-1.211-.348v.035c0 1.345.921 2.468 2.144 2.723a2.558 2.558 0 0 1-1.207.047c.34 1.104 1.327 1.907 2.497 1.929a5.238 5.238 0 0 1-3.958 1.15A7.364 7.364 0 0 0 4.605 11c4.917 0 7.606-4.232 7.606-7.901 0-.121-.003-.241-.008-.36.523-.391.976-.88 1.334-1.437z"/>
</svg>
